<svg width="104" height="32" viewBox="0 0 104 32" fill="none" xmlns="http://www.w3.org/2000/svg">
<path d="M93.8002 24.9756V6.24391H96.5806V9.07317H96.7758C97.1172 8.14634 97.7351 7.39431 98.6294 6.81708C99.5237 6.23984 100.532 5.95122 101.654 5.95122C101.865 5.95122 102.129 5.95529 102.446 5.96342C102.764 5.97155 103.003 5.98374 103.166 6V8.92683C103.068 8.90244 102.845 8.86586 102.495 8.81708C102.154 8.76016 101.792 8.73171 101.41 8.73171C100.499 8.73171 99.6863 8.92277 98.9709 9.30488C98.2636 9.67886 97.7026 10.1992 97.288 10.8659C96.8815 11.5244 96.6782 12.2764 96.6782 13.122V24.9756H93.8002Z" fill="black"/>
<path d="M72.8733 32V6.2439H75.6538V9.21951H75.9953C76.2067 8.89431 76.4994 8.47967 76.8733 7.97561C77.2555 7.46341 77.8002 7.00813 78.5075 6.60976C79.2229 6.20325 80.1904 6 81.4099 6C82.9872 6 84.3774 6.39431 85.5807 7.18293C86.7839 7.97154 87.7229 9.08943 88.3977 10.5366C89.0725 11.9837 89.4099 13.6911 89.4099 15.6585C89.4099 17.6423 89.0725 19.3618 88.3977 20.8171C87.7229 22.2642 86.788 23.3862 85.5928 24.1829C84.3977 24.9715 83.0197 25.3659 81.4587 25.3659C80.2554 25.3659 79.292 25.1667 78.5685 24.7683C77.8449 24.3618 77.288 23.9024 76.8977 23.3902C76.5075 22.8699 76.2067 22.439 75.9953 22.0976H75.7514V32H72.8733ZM75.7026 15.6098C75.7026 17.0244 75.9099 18.2724 76.3246 19.3537C76.7392 20.4268 77.3449 21.2683 78.1416 21.878C78.9384 22.4797 79.914 22.7805 81.0685 22.7805C82.2717 22.7805 83.2758 22.4634 84.0807 21.8293C84.8937 21.187 85.5034 20.3252 85.9099 19.2439C86.3246 18.1545 86.5319 16.9431 86.5319 15.6098C86.5319 14.2927 86.3286 13.1057 85.9221 12.0488C85.5237 10.9837 84.9181 10.1423 84.105 9.52439C83.3002 8.89837 82.288 8.58537 81.0685 8.58537C79.8977 8.58537 78.914 8.88211 78.1172 9.47561C77.3205 10.061 76.7189 10.8821 76.3124 11.939C75.9059 12.9878 75.7026 14.2114 75.7026 15.6098Z" fill="black"/>
<path d="M56.4739 6.2439L60.9617 13.9024L65.4495 6.2439H68.7666L62.7178 15.6098L68.7666 24.9756H65.4495L60.9617 17.7073L56.4739 24.9756H53.1569L59.1081 15.6098L53.1569 6.2439H56.4739Z" fill="black"/>
<path d="M34.1935 24.9756V0H49.2666V2.68293H37.2178V11.122H48.4861V13.8049H37.2178V22.2927H49.4617V24.9756H34.1935Z" fill="black"/>
<path d="M5.3809 10.0711L5.96865 7.8849L5.96977 7.88079C6.0695 7.5058 5.84643 7.12095 5.47145 7.02122C5.09647 6.92149 4.71162 7.14464 4.61197 7.51962L4.02413 9.70583C4.0086 9.7642 4.00062 9.82427 4.00045 9.8847C3.99907 10.2738 4.31346 10.5902 4.70252 10.5916C5.02025 10.5913 5.29834 10.378 5.3809 10.0711ZM1.75827 24.0535H1.61958L1.65665 23.9203C1.75664 23.545 1.53443 23.1595 1.15954 23.0579C0.784897 22.9629 0.402705 23.1832 0.297137 23.555L0.0238604 24.574C0.00806803 24.6331 7.02749e-08 24.6942 7.02749e-08 24.7553C-0.000171768 25.1441 0.314817 25.4596 0.703618 25.4597H1.75827C2.14656 25.4597 2.46138 25.1449 2.46138 24.7566C2.46138 24.3683 2.14656 24.0535 1.75827 24.0535ZM8.18645 0.148022H7.1318C6.81372 0.148108 6.53512 0.361391 6.45212 0.668484L6.17885 1.68743C6.07886 2.06276 6.30107 2.4483 6.67596 2.54983C6.7357 2.56494 6.79698 2.57275 6.8586 2.57318C7.17651 2.57249 7.45477 2.35947 7.53828 2.05272L7.67148 1.55423H8.18645C8.57474 1.55423 8.88955 1.23941 8.88955 0.851126C8.88955 0.46284 8.57474 0.148022 8.18645 0.148022ZM3.31562 15.0423C2.9409 14.9414 2.55544 15.1634 2.4546 15.538L1.86676 17.7242C1.85122 17.7826 1.84324 17.8427 1.84307 17.9031C1.8417 18.2922 2.15609 18.6087 2.54514 18.61C2.86288 18.6097 3.14096 18.3963 3.22353 18.0895L3.81137 15.9033C3.91221 15.5287 3.69026 15.1431 3.31562 15.0423ZM7.0494 24.0535H5.60612C5.21783 24.0535 4.90301 24.3683 4.90301 24.7566C4.90301 25.1449 5.21783 25.4597 5.60612 25.4597H7.0494C7.43769 25.4597 7.7525 25.1449 7.7525 24.7566C7.7525 24.3683 7.43769 24.0535 7.0494 24.0535ZM28.0999 24.574L21.6718 0.668484C21.5898 0.361219 21.3114 0.147593 20.9934 0.148022H16.1719C15.7838 0.14828 15.4685 0.463011 15.4688 0.851126V24.7566C15.469 25.1447 15.7838 25.46 16.1719 25.4597H27.4215C27.4837 25.4597 27.5455 25.4516 27.6054 25.4354C27.9799 25.3341 28.2012 24.9484 28.0999 24.574ZM16.875 24.0535V1.55423H20.4537L26.5042 24.0535H16.875ZM11.9533 0.148022H10.8986C10.5103 0.148022 10.1955 0.46284 10.1955 0.851126C10.1955 1.23941 10.5103 1.55423 10.8986 1.55423H11.2502V1.90578C11.2504 2.29381 11.5652 2.60914 11.9533 2.60888C12.3413 2.60863 12.6566 2.29389 12.6564 1.90578V0.851126C12.6561 0.463097 12.3414 0.147765 11.9533 0.148022ZM11.9533 22.9989C11.565 22.9989 11.2502 23.3137 11.2502 23.702V24.0535H10.8986C10.5103 24.0535 10.1955 24.3683 10.1955 24.7566C10.1955 25.1449 10.5103 25.4597 10.8986 25.4597H11.9533C12.3413 25.4595 12.6566 25.1447 12.6564 24.7566V23.702C12.6564 23.3137 12.3416 22.9989 11.9533 22.9989ZM11.9533 15.0079C11.565 15.0079 11.2502 15.3228 11.2502 15.711V17.8904C11.2504 18.2785 11.5652 18.5938 11.9533 18.5935C12.3414 18.5932 12.6566 18.2785 12.6564 17.8904V15.711C12.6564 15.3228 12.3416 15.0079 11.9533 15.0079ZM11.9533 7.01564C11.565 7.01564 11.2502 7.33046 11.2502 7.71874V9.89809C11.2504 10.2862 11.5652 10.6014 11.9533 10.6012C12.3413 10.6009 12.6566 10.2862 12.6564 9.89809V7.71874C12.6564 7.33046 12.3416 7.01564 11.9533 7.01564Z" fill="black"/>
</svg>
